<svg enable-background="new 0 0 449 187.1" viewBox="0 0 449 187.1" xmlns="http://www.w3.org/2000/svg"><g fill="#38425d"><path d="m196.2 156.9-.6.8 42.2 1.8-45.2 2-1.3 1.7 46.5 1.9-49.6 2.1-1.2 1.5 50.8 2-54 2.2-1.1 1.4 55.1 2.1-58.4 2.1-1 1.3 59.4 2.2-62.8 2.2-.6.9h71.3v-28.2z"/><path d="m187.1 156.7 51.5-68.2h-2.3l-53.3 65 49-65h-2.4l-50.7 61.7 46.6-61.7h-2.7l-48 58.5 44.1-58.5h-2.9l-45.3 55.3 41.7-55.3h-3.1l-42.7 52 39.2-52h-2.5l-59.7 76v20.6h25.8l76.5-96.6h-2.8z"/><path d="m143.6 56.9v1.1l79.5 1.7-79.5 1.6v2.5l79.5 1.6-79.5 1.6v2.5l79.5 1.6-79.5 1.7v2.4l79.5 1.6-79.5 1.7v2.4l79.5 1.7-79.5 1.6v1.2h102.4v-28.5z"/><path d="m131.2 185c-5 1.6-9.1 2.1-16.4 2.1-13.9 0-24.6-6.5-29-20.7h-.3c-4.2 7.9-14.9 20.7-42.1 20.7-28.2 0-43.4-13.9-43.4-35.1 0-31.4 32.2-40.6 67.2-40.6h16.5v-5.8c0-13.3-8.1-22.2-24.3-22.2-13.6 0-22.2 6.8-23.5 17.8h-32.5c2.1-29 24.6-45 57.8-45 37.4 0 57.3 19.6 57.3 52.1v41.3c0 5.2 2.4 7.9 6 7.9 2.2 0 4.5-.4 6.5-1.3zm-47.5-45.8v-8.1h-18.6c-19.1 0-30.3 5.5-30.3 16.7 0 8.4 6.3 13.1 18.6 13.1 18.8 0 30.3-11.5 30.3-21.7z"/><path d="m449 184.6c-5.4 1.8-11.1 2.6-16.8 2.5-20.9 0-31.7-12.6-31.7-35.3v-151.8h35.9v149.6c0 5 2.6 7.9 6.3 7.9 2.2 0 4.3-.4 6.3-1.3z"/><path d="m391.2 156.2c-2 .9-4.1 1.3-6.3 1.3-3.7 0-6.3-2.9-6.3-7.9v-92h-36v71.7c0 16-10.2 26.7-23.5 26.7-14.4 0-22-9.4-22-24.3v-74h-36.1v82.3c0 26.4 14.9 47.1 44.2 47.1 15.8 0 30.6-7.9 39.4-21 3.8 13.6 13.9 21 29.9 21 5.7.2 11.4-.7 16.8-2.5z"/></g></svg>